<svg xmlns="http://www.w3.org/2000/svg" xmlns:xlink="http://www.w3.org/1999/xlink" width="40" zoomAndPan="magnify" viewBox="0 0 30 30.000001" height="40" preserveAspectRatio="xMidYMid meet" version="1.0"><defs><clipPath id="d5fbc34fda"><path d="M 0.484375 0 L 29.515625 0 L 29.515625 29.03125 L 0.484375 29.03125 Z M 0.484375 0 " clip-rule="nonzero"/></clipPath><clipPath id="9f259e2c30"><path d="M 15 11 L 29.515625 11 L 29.515625 23 L 15 23 Z M 15 11 " clip-rule="nonzero"/></clipPath><clipPath id="511d886ba1"><path d="M 11 2.136719 L 22 2.136719 L 22 10 L 11 10 Z M 11 2.136719 " clip-rule="nonzero"/></clipPath><clipPath id="936b3e187b"><path d="M 1 22 L 17 22 L 17 26.816406 L 1 26.816406 Z M 1 22 " clip-rule="nonzero"/></clipPath></defs><g clip-path="url(#d5fbc34fda)"><path fill="#ffffff" d="M 0.484375 0 L 29.515625 0 L 29.515625 36.289062 L 0.484375 36.289062 Z M 0.484375 0 " fill-opacity="1" fill-rule="nonzero"/><path fill="#ffffff" d="M 0.484375 0 L 29.515625 0 L 29.515625 29.03125 L 0.484375 29.03125 Z M 0.484375 0 " fill-opacity="1" fill-rule="nonzero"/><path fill="#2c2d35" d="M 0.484375 0 L 29.515625 0 L 29.515625 29.03125 L 0.484375 29.03125 Z M 0.484375 0 " fill-opacity="1" fill-rule="nonzero"/></g><g clip-path="url(#9f259e2c30)"><path fill="#a96551" d="M 15.507812 12.359375 C 15.507812 12.359375 27.425781 22.253906 27.796875 22.132812 C 28.167969 22.011719 29.519531 20.484375 29.3125 19.964844 C 29.109375 19.441406 16.222656 11.339844 16.222656 11.339844 Z M 15.507812 12.359375 " fill-opacity="1" fill-rule="nonzero"/></g><path fill="#97503d" d="M 7.730469 10.9375 C 7.730469 10.9375 11.265625 8.839844 12.414062 4.234375 L 19.726562 9.316406 C 19.726562 9.316406 15.710938 11.933594 15.042969 16.019531 Z M 7.730469 10.9375 " fill-opacity="1" fill-rule="nonzero"/><path fill="#a96551" d="M 7.5 10.207031 C 7.5 10.207031 5.59375 11.824219 6.265625 12.667969 C 6.933594 13.511719 13.238281 18.371094 13.960938 18.019531 C 14.683594 17.667969 16.015625 16.125 15.65625 15.6875 C 15.296875 15.246094 9.175781 10.804688 7.5 10.207031 Z M 7.5 10.207031 " fill-opacity="1" fill-rule="nonzero"/><g clip-path="url(#511d886ba1)"><path fill="#a96551" d="M 13.230469 2.144531 C 13.230469 2.144531 11.324219 3.761719 11.996094 4.605469 C 12.664062 5.449219 18.972656 10.308594 19.691406 9.957031 C 20.414062 9.601562 21.746094 8.0625 21.386719 7.625 C 21.027344 7.183594 14.90625 2.738281 13.230469 2.144531 Z M 13.230469 2.144531 " fill-opacity="1" fill-rule="nonzero"/></g><path fill="#c4773c" d="M 3.273438 22.871094 C 3.273438 22.871094 2.496094 20.925781 3.898438 20.382812 C 5.304688 19.835938 13.566406 19.535156 14.269531 20.355469 C 14.972656 21.171875 14.859375 22.652344 14.640625 23.195312 Z M 3.273438 22.871094 " fill-opacity="1" fill-rule="nonzero"/><g clip-path="url(#936b3e187b)"><path fill="#d89355" d="M 1.207031 26.820312 C 1.207031 26.820312 0.492188 23.546875 2.269531 22.859375 C 4.050781 22.167969 15.085938 21.828125 15.976562 22.867188 C 16.867188 23.902344 16.722656 25.777344 16.449219 26.464844 Z M 1.207031 26.820312 " fill-opacity="1" fill-rule="nonzero"/></g></svg>