<svg width="50" height="50" viewBox="0 0 50 50" fill="none" xmlns="http://www.w3.org/2000/svg">
<circle cx="25" cy="25" r="25" fill="#B4905B"/>
<path d="M24.5 12C21.1019 12 20.6784 12.0164 19.3486 12.0727C18.0133 12.1383 17.11 12.3454 16.313 12.6548C15.4789 12.9697 14.7235 13.4627 14.0995 14.0995C13.4609 14.7221 12.9676 15.4779 12.6548 16.313C12.3454 17.11 12.1383 18.0133 12.0727 19.3486C12.0125 20.6792 12 21.1019 12 24.5C12 27.8981 12.0164 28.3216 12.0727 29.6514C12.1383 30.9828 12.3454 31.89 12.6548 32.687C12.9697 33.5211 13.4627 34.2765 14.0995 34.9005C14.7221 35.5391 15.4779 36.0324 16.313 36.3452C17.11 36.6507 18.0172 36.8617 19.3486 36.9273C20.6792 36.9875 21.1019 37 24.5 37C27.8981 37 28.3216 36.9836 29.6514 36.9273C30.9828 36.8617 31.89 36.65 32.687 36.3452C33.5211 36.0303 34.2765 35.5373 34.9005 34.9005C35.5399 34.2786 36.0333 33.5226 36.3452 32.687C36.6507 31.89 36.8617 30.9828 36.9273 29.6514C36.9875 28.3208 37 27.8981 37 24.5C37 21.1019 36.9836 20.6784 36.9273 19.3486C36.8617 18.0172 36.65 17.1053 36.3452 16.313C36.0303 15.4789 35.5373 14.7235 34.9005 14.0995C34.2786 13.4601 33.5226 12.9667 32.687 12.6548C31.89 12.3454 30.9828 12.1383 29.6514 12.0727C28.3208 12.0125 27.8981 12 24.5 12ZM24.5 14.2503C27.8371 14.2503 28.2356 14.2667 29.5545 14.3229C30.7711 14.38 31.4337 14.5831 31.8736 14.755C32.4174 14.9558 32.9096 15.2753 33.3144 15.6903C33.7287 16.0933 34.047 16.5844 34.2457 17.1272C34.4176 17.5671 34.6208 18.2297 34.6778 19.4462C34.7341 20.7652 34.7505 21.1644 34.7505 24.5008C34.7505 27.8371 34.7341 28.2364 34.6731 29.5553C34.6075 30.7719 34.4044 31.4345 34.2332 31.8744C33.9965 32.4612 33.7324 32.8714 33.2964 33.3152C32.8903 33.7276 32.3984 34.0456 31.8556 34.2465C31.4212 34.4184 30.7492 34.6216 29.528 34.6786C28.202 34.7349 27.8114 34.7513 24.4656 34.7513C21.1199 34.7513 20.73 34.7349 19.4025 34.6739C18.1859 34.6083 17.5148 34.4051 17.0749 34.234C16.481 33.9973 16.0739 33.7332 15.638 33.2972C15.1981 32.8573 14.9183 32.4385 14.7027 31.8564C14.5277 31.422 14.3276 30.75 14.2628 29.5288C14.2182 28.2184 14.1971 27.8121 14.1971 24.482C14.1971 21.1535 14.2182 20.7464 14.2628 19.4197C14.3276 18.1984 14.5277 17.528 14.7027 17.092C14.9183 16.4974 15.1988 16.0911 15.638 15.6512C16.0732 15.216 16.481 14.9347 17.0749 14.7144C17.5148 14.5433 18.1695 14.3401 19.3908 14.2792C20.7167 14.2315 21.1074 14.2143 24.4484 14.2143L24.5 14.2503ZM24.5 18.0844C23.6572 18.084 22.8226 18.2498 22.0439 18.5722C21.2652 18.8946 20.5576 19.3673 19.9617 19.9632C19.3657 20.5592 18.893 21.2667 18.5706 22.0454C18.2483 22.8241 18.0825 23.6588 18.0828 24.5016C18.0825 25.3444 18.2483 26.179 18.5706 26.9577C18.893 27.7364 19.3657 28.4439 19.9617 29.0399C20.5576 29.6359 21.2652 30.1085 22.0439 30.4309C22.8226 30.7533 23.6572 30.9191 24.5 30.9188C25.3428 30.9191 26.1774 30.7533 26.9561 30.4309C27.7348 30.1085 28.4424 29.6359 29.0383 29.0399C29.6343 28.4439 30.107 27.7364 30.4294 26.9577C30.7517 26.179 30.9175 25.3444 30.9172 24.5016C30.9175 23.6588 30.7517 22.8241 30.4294 22.0454C30.107 21.2667 29.6343 20.5592 29.0383 19.9632C28.4424 19.3673 27.7348 18.8946 26.9561 18.5722C26.1774 18.2498 25.3428 18.084 24.5 18.0844ZM24.5 28.6685C22.1966 28.6685 20.3331 26.805 20.3331 24.5016C20.3331 22.1981 22.1966 20.3346 24.5 20.3346C26.8034 20.3346 28.6669 22.1981 28.6669 24.5016C28.6669 26.805 26.8034 28.6685 24.5 28.6685ZM32.676 17.8281C32.6756 18.2263 32.5171 18.6081 32.2354 18.8895C31.9537 19.171 31.5717 19.329 31.1735 19.329C30.9766 19.329 30.7816 19.2903 30.5997 19.2149C30.4178 19.1396 30.2525 19.0291 30.1132 18.8899C29.974 18.7506 29.8636 18.5853 29.7882 18.4034C29.7129 18.2215 29.6741 18.0265 29.6741 17.8296C29.6741 17.6327 29.7129 17.4378 29.7882 17.2558C29.8636 17.0739 29.974 16.9086 30.1132 16.7694C30.2525 16.6302 30.4178 16.5197 30.5997 16.4444C30.7816 16.369 30.9766 16.3302 31.1735 16.3302C31.9994 16.3302 32.676 17.0022 32.676 17.8281Z" fill="white"/>
</svg>
